<svg width="511" height="383" fill="none" xmlns="http://www.w3.org/2000/svg">
  <path
    d="m382.402 272.688-259.493-7.431a23.998 23.998 0 0 1-15.681-6.419 23.97 23.97 0 0 1-7.523-15.175L87.179 119.986a24.012 24.012 0 0 1 5.968-18.386 24.04 24.04 0 0 1 17.586-8.045l288.835-3.99a24.073 24.073 0 0 1 18.239 7.992 24.04 24.04 0 0 1 5.964 18.988l-16.817 135.098a24.07 24.07 0 0 1-8.216 15.253 24.096 24.096 0 0 1-16.336 5.792Z"
    fill="#E0F3EC" />
  <path
    d="m304.704 278.572.898 20.198a7.484 7.484 0 0 1-7.485 7.48H90.722a7.487 7.487 0 0 1-7.485-7.48V181.227a7.48 7.48 0 0 1 7.485-7.481h207.345a7.482 7.482 0 0 1 7.485 7.481v79.492M351.163 261.217V145.47a7.478 7.478 0 0 1 7.485-7.481h61.879a7.478 7.478 0 0 1 7.485 7.481v171.701a7.478 7.478 0 0 1-7.485 7.481h-61.879a7.478 7.478 0 0 1-7.485-7.481v-37.352M129.696 138.687H84.834v-4.438h44.862a.89.89 0 0 1 .898.898v2.593a.873.873 0 0 1-.237.674.872.872 0 0 1-.661.273v0Z"
    stroke="#007DBA" stroke-width="1.8" stroke-linecap="round" stroke-linejoin="round" />
  <path
    d="M122.86 173.746h-10.131a2.152 2.152 0 0 1-2.145-1.895l-.799-7.181a2.155 2.155 0 0 1 1.266-2.205c.277-.124.577-.188.88-.189h11.727a2.164 2.164 0 0 1 2.146 2.394l-.799 7.181a2.116 2.116 0 0 1-2.145 1.895v0Z"
    stroke="#007DBA" stroke-width="1.8" stroke-linecap="round" stroke-linejoin="round" />
  <path
    d="M116.622 162.326s-3.993-.399-4.791-5.784c0 0 3.593 1.047 4.741 3.59 0 0 .499-5.685 3.194-6.234 0 0 1.197 4.239-.699 6.334 0 0 1.447-2.394 5.14-2.344a6.787 6.787 0 0 1-4.591 4.389"
    fill="#007DBA" />
  <path
    d="M395.376 137.99h-10.13a2.158 2.158 0 0 1-2.146-1.895l-.798-7.182a2.155 2.155 0 0 1 1.265-2.205c.277-.124.577-.188.881-.188h11.727a2.167 2.167 0 0 1 2.053 1.499c.093.288.125.593.093.894l-.799 7.182a2.156 2.156 0 0 1-2.146 1.895v0Z"
    stroke="#007DBA" stroke-width="1.8" stroke-linecap="round" stroke-linejoin="round" />
  <path
    d="M389.088 126.57s-3.992-.399-4.79-5.785c0 0 3.593 1.047 4.741 3.59 0 0 .499-5.685 3.193-6.233 0 0 1.198 4.239-.698 6.333 0 0 1.447-2.394 5.14-2.344a6.78 6.78 0 0 1-4.591 4.389"
    fill="#007DBA" />
  <path
    d="M296.52 198.531h-45.012a2.112 2.112 0 0 1-2.096-2.094v-13.665a2.107 2.107 0 0 1 2.096-2.094h45.012a2.111 2.111 0 0 1 2.096 2.094v13.665a2.111 2.111 0 0 1-2.096 2.094v0Z"
    stroke="#007DBA" stroke-width="1.8" stroke-linecap="round" stroke-linejoin="round" />
  <path
    d="M279.154 185.516h-10.38a.772.772 0 0 1-.749-.748.77.77 0 0 1 .749-.748h10.38a.766.766 0 0 1 .748.748.729.729 0 0 1-.214.533.743.743 0 0 1-.534.215Z"
    fill="#007DBA" />
  <path
    d="M296.52 221.422h-45.012a2.112 2.112 0 0 1-2.096-2.095v-13.664a2.111 2.111 0 0 1 2.096-2.095h45.012a2.111 2.111 0 0 1 2.096 2.095v13.664a2.108 2.108 0 0 1-2.096 2.095v0Z"
    stroke="#007DBA" stroke-width="1.8" stroke-linecap="round" stroke-linejoin="round" />
  <path
    d="M279.154 208.355h-10.38a.77.77 0 0 1-.749-.748.77.77 0 0 1 .749-.748h10.38a.767.767 0 0 1 .748.748.734.734 0 0 1-.748.748Z"
    fill="#007DBA" />
  <path
    d="M239.132 198.531H194.12a2.113 2.113 0 0 1-2.096-2.094v-13.665a2.107 2.107 0 0 1 2.096-2.094h45.012a2.113 2.113 0 0 1 2.096 2.094v13.665a2.109 2.109 0 0 1-2.096 2.094v0Z"
    stroke="#007DBA" stroke-width="1.8" stroke-linecap="round" stroke-linejoin="round" />
  <path
    d="M221.816 185.516h-10.38a.772.772 0 0 1-.748-.748.769.769 0 0 1 .748-.748h10.38a.769.769 0 0 1 .748.748.768.768 0 0 1-.748.748Z"
    fill="#007DBA" />
  <path
    d="M239.132 221.422H194.12a2.113 2.113 0 0 1-2.096-2.095v-13.664a2.111 2.111 0 0 1 2.096-2.095h45.012a2.113 2.113 0 0 1 2.096 2.095v13.664a2.111 2.111 0 0 1-2.096 2.095v0Z"
    stroke="#007DBA" stroke-width="1.8" stroke-linecap="round" stroke-linejoin="round" />
  <path
    d="M221.816 208.355h-10.38a.769.769 0 0 1-.748-.748.768.768 0 0 1 .748-.748h10.38a.772.772 0 0 1 .748.748.769.769 0 0 1-.748.748Z"
    fill="#007DBA" />
  <path
    d="M296.52 243.764h-45.012a2.112 2.112 0 0 1-2.096-2.095v-13.664a2.11 2.11 0 0 1 2.096-2.095h45.012a2.111 2.111 0 0 1 2.096 2.095v13.664a2.108 2.108 0 0 1-2.096 2.095v0Z"
    stroke="#007DBA" stroke-width="1.8" stroke-linecap="round" stroke-linejoin="round" />
  <path
    d="M279.154 230.747h-10.38a.767.767 0 0 1-.749-.748.767.767 0 0 1 .749-.748h10.38a.763.763 0 0 1 .523.225c.14.139.22.326.225.523a.734.734 0 0 1-.748.748Z"
    fill="#007DBA" />
  <path
    d="M239.132 243.764H194.12a2.113 2.113 0 0 1-2.096-2.095v-13.664a2.11 2.11 0 0 1 2.096-2.095h45.012a2.113 2.113 0 0 1 2.096 2.095v13.664a2.111 2.111 0 0 1-2.096 2.095v0Z"
    stroke="#007DBA" stroke-width="1.8" stroke-linecap="round" stroke-linejoin="round" />
  <path
    d="M221.816 230.747h-10.38a.767.767 0 0 1-.748-.748.766.766 0 0 1 .748-.748h10.38a.767.767 0 0 1 .748.748.766.766 0 0 1-.748.748Z"
    fill="#007DBA" />
  <path
    d="M441.586 190.253h-79.794a2.318 2.318 0 0 1-2.296-2.294v-39.746a2.322 2.322 0 0 1 2.296-2.294h79.794a2.318 2.318 0 0 1 2.295 2.294v39.746a2.25 2.25 0 0 1-.662 1.633 2.252 2.252 0 0 1-1.633.661v0ZM441.586 239.624h-79.794a2.318 2.318 0 0 1-2.296-2.294v-39.746a2.322 2.322 0 0 1 2.296-2.294h79.794a2.322 2.322 0 0 1 2.295 2.294v39.746a2.284 2.284 0 0 1-1.416 2.121 2.288 2.288 0 0 1-.879.173v0Z"
    stroke="#007DBA" stroke-width="1.8" stroke-linecap="round" stroke-linejoin="round" />
  <path d="M379.757 165.169h-4.941v25.084h4.941v-25.084Z" stroke="#007DBA" stroke-width="1.8" stroke-linecap="round"
    stroke-linejoin="round" />
  <path d="M384.847 172.051h-5.14v18.252h5.14v-18.252ZM111.631 109.165h-4.94v25.085h4.94v-25.085Z" stroke="#007DBA"
    stroke-width="1.8" stroke-linecap="round" stroke-linejoin="round" />
  <path
    d="M116.721 115.997h-5.139v18.252h5.139v-18.252ZM101.551 119.588h-4.94v14.662h4.94v-14.662ZM106.691 104.876h-5.14v29.323h5.14v-29.323Z"
    stroke="#007DBA" stroke-width="1.8" stroke-linecap="round" stroke-linejoin="round" />
  <path
    d="m376.663 217.831.549-7.431a.814.814 0 0 0-.507-.836.818.818 0 0 0-.342-.062h-4.241a.861.861 0 0 0-.617.268.845.845 0 0 0-.232.63l.549 7.431s-4.491 2.892-4.441 5.286c.05 1.845 1.148 10.672 1.647 14.562a2.154 2.154 0 0 0 2.146 1.895h6.187a2.154 2.154 0 0 0 2.146-1.895c.499-3.89 1.597-12.717 1.647-14.562 0-2.394-4.491-5.286-4.491-5.286ZM400.716 168.51l.549-7.43a.835.835 0 0 0-.222-.641.84.84 0 0 0-.285-.196.836.836 0 0 0-.342-.061h-4.291a.861.861 0 0 0-.617.267.849.849 0 0 0-.232.631l.549 7.43s-4.491 2.893-4.441 5.287c.05 1.845 1.148 10.672 1.647 14.562a2.156 2.156 0 0 0 2.146 1.895h6.187a2.156 2.156 0 0 0 2.146-1.895c.499-3.89 1.597-12.717 1.647-14.562.05-2.394-4.441-5.287-4.441-5.287Z"
    fill="#007DBA" />
  <path d="m90.024 258.375 350.813 3.84" stroke="#007DBA" stroke-width="1.8" stroke-linecap="round"
    stroke-linejoin="round" />
  <path
    d="M274.712 80.89c-1.946 4.138-6.437 6.881-9.581 6.034-2.744-.749-3.244-3.99-1.497-7.232 1.697-3.091 5.09-5.585 8.034-5.635 3.244-.1 4.841 2.893 3.044 6.832Z"
    fill="#F8AB5D" />
  <path
    d="M273.764 80.04c-1.946 4.14-6.437 6.883-9.581 6.035-2.745-.748-3.244-3.99-1.497-7.231 1.697-3.092 5.09-5.586 8.034-5.635 3.244-.1 4.841 2.892 3.044 6.832Z"
    fill="#FFEE93" />
  <path
    d="M272.167 79.842c-1.447 3.092-4.84 5.186-7.236 4.638-2.145-.499-2.644-2.992-1.297-5.536 1.297-2.443 4.042-4.388 6.288-4.388 2.545.05 3.643 2.344 2.245 5.286Z"
    fill="#F8AB5D" />
  <path
    d="m265.68 82.485.2-.35c.05-.149.05-.249-.05-.298a.884.884 0 0 1-.549-.35c-.05-.05-.05-.199.05-.349l.05-.05c.099-.149.299-.199.349-.1.173.184.4.307.649.35a1.18 1.18 0 0 0 1.247-.698.776.776 0 0 0-.299-1.097 1.019 1.019 0 0 1-.563-1.092c.025-.145.081-.283.164-.404a2.061 2.061 0 0 1 1.497-1.147c.099 0 .199-.1.299-.25l.2-.349a.373.373 0 0 1 .349-.25c.1 0 .15.1.1.25l-.15.3c-.05.149-.05.249.1.249.165.025.32.094.449.2.1.049.05.199-.05.348l-.05.05c-.1.15-.299.2-.349.1a.948.948 0 0 0-.599-.2 1.134 1.134 0 0 0-1.098.649c-.199.399-.05.648.399.997a1.133 1.133 0 0 1 .544.745 1.118 1.118 0 0 1-.194.9 2.225 2.225 0 0 1-1.697 1.248.369.369 0 0 0-.299.249l-.2.399a.431.431 0 0 1-.349.25c-.2 0-.25-.15-.15-.3Z"
    fill="#FFEE93" />
  <path
    d="m365.684 170.006-19.362-1.197a2.401 2.401 0 0 1-1.665-.827 2.415 2.415 0 0 1-.58-1.766l2.944-39.696a2.784 2.784 0 0 1 2.595-2.543l19.811-1.197a2.417 2.417 0 0 1 1.857.723 2.412 2.412 0 0 1 .688 1.87l-3.294 42.09a2.845 2.845 0 0 1-2.994 2.543Z"
    fill="#22272E" />
  <path
    d="m364.337 170.006-19.362-1.197a2.396 2.396 0 0 1-1.665-.827 2.415 2.415 0 0 1-.581-1.766l2.945-39.696a2.783 2.783 0 0 1 2.594-2.543l19.812-1.197a2.417 2.417 0 0 1 1.857.723 2.426 2.426 0 0 1 .688 1.87l-3.294 42.09a2.85 2.85 0 0 1-2.994 2.543Z"
    fill="#22272E" />
  <path
    d="m358.399 127.417-3.693.2a.482.482 0 0 1-.363-.136.469.469 0 0 1-.136-.363.553.553 0 0 1 .549-.548l3.693-.2a.479.479 0 0 1 .47.303.482.482 0 0 1 .029.196.554.554 0 0 1-.549.548ZM360.544 127.318h-.099a.482.482 0 0 1-.363-.136.469.469 0 0 1-.136-.363.687.687 0 0 1 .598-.598h.1a.46.46 0 0 1 .47.303.448.448 0 0 1 .029.195.693.693 0 0 1-.196.403.693.693 0 0 1-.403.196ZM354.756 134.05l-4.941.149a.847.847 0 0 1-.848-.947c.026-.256.14-.495.322-.676.181-.182.42-.296.676-.322l4.94-.199a.847.847 0 0 1 .849.947 1.078 1.078 0 0 1-.998 1.048ZM353.458 151.206l-4.89-.05a.909.909 0 0 1-.621-.298.9.9 0 0 1-.228-.65 1.072 1.072 0 0 1 .999-.947l4.89.05a.882.882 0 0 1 .346.078.882.882 0 0 1 .462.517.859.859 0 0 1 .04.352 1.021 1.021 0 0 1-.998.948ZM352.41 165.069l-4.89-.249a.91.91 0 0 1-.81-.637.896.896 0 0 1-.038-.36.934.934 0 0 1 .948-.898l4.89.199a.893.893 0 0 1 .646.311.885.885 0 0 1 .203.687.948.948 0 0 1-.949.947Z"
    fill="#63737A" />
  <path
    d="m363.788 145.071-14.571.05a1.039 1.039 0 0 1-.779-.341 1.038 1.038 0 0 1-.269-.806l.449-6.334a1.019 1.019 0 0 1 .998-.947l14.621-.399a1.039 1.039 0 0 1 .779.341 1.038 1.038 0 0 1 .269.806l-.499 6.633a.998.998 0 0 1-.998.997Z"
    fill="#B0D7C0" />
  <path
    d="m353.109 159.733-4.99-.2a1.015 1.015 0 0 1-.412-.1 1.02 1.02 0 0 1-.337-.256 1.04 1.04 0 0 1-.249-.791l.299-3.79a1.013 1.013 0 0 1 .327-.691 1.012 1.012 0 0 1 .721-.256l5.04.099a1.108 1.108 0 0 1 1.048 1.148l-.299 3.889a1.142 1.142 0 0 1-1.148.948Z"
    fill="#FFEE93" />
  <path
    d="m362.59 160.032-5.339-.2a1.015 1.015 0 0 1-.412-.1 1.028 1.028 0 0 1-.586-1.047l.299-3.939a1.008 1.008 0 0 1 .328-.691.998.998 0 0 1 .72-.257l5.39.1a1.105 1.105 0 0 1 1.048 1.147l-.3 4.039a1.127 1.127 0 0 1-1.148.948Z"
    fill="#F4C2C9" />
  <path
    d="m243.124 108.617-16.218.748a1.999 1.999 0 0 1-2.005-1.461 1.995 1.995 0 0 1-.041-.883l2.695-26.93a3.185 3.185 0 0 1 2.595-2.792l16.517-2.145c1.447-.2 2.445.848 2.296 2.294l-3.044 28.476a3.086 3.086 0 0 1-2.795 2.693Z"
    fill="#22272E" />
  <path
    d="m241.927 108.068-16.219.748a2.001 2.001 0 0 1-1.585-.682 1.99 1.99 0 0 1-.461-1.662l2.695-26.93a3.18 3.18 0 0 1 2.595-2.792l16.518-2.145c1.447-.199 2.445.848 2.295 2.294l-3.044 28.476a3.034 3.034 0 0 1-2.794 2.693Z"
    fill="#22272E" />
  <path
    d="m242.675 83.681-12.625 1.347a.632.632 0 0 1-.699-.698l.3-3.092a.586.586 0 0 1 .548-.549l12.676-1.496a.634.634 0 0 1 .698.698l-.349 3.242a.555.555 0 0 1-.549.549Z"
    fill="#F4C2C9" />
  <path
    d="m230.948 92.259-1.647.15a.637.637 0 0 1-.666-.42c-.032-.09-.043-.185-.032-.279l.199-1.795a.591.591 0 0 1 .549-.549l1.647-.15a.635.635 0 0 1 .699.699l-.2 1.795a.586.586 0 0 1-.549.549ZM241.877 91.312l-1.797.15a.634.634 0 0 1-.666-.42c-.032-.09-.043-.185-.032-.279l.199-1.895a.591.591 0 0 1 .549-.549l1.797-.2a.637.637 0 0 1 .666.42c.031.09.042.185.032.28l-.199 1.894a.64.64 0 0 1-.549.599ZM236.338 91.76l-1.697.15a.634.634 0 0 1-.699-.698l.2-1.845a.586.586 0 0 1 .549-.549l1.696-.15a.63.63 0 0 1 .667.42c.031.09.042.185.032.279l-.2 1.845a.55.55 0 0 1-.548.549ZM230.299 98.394l-1.646.1a.65.65 0 0 1-.659-.424.644.644 0 0 1-.04-.275l.2-1.795a.635.635 0 0 1 .598-.549l1.647-.15a.632.632 0 0 1 .699.699l-.2 1.795a.64.64 0 0 1-.599.599ZM241.228 97.645l-1.797.15a.655.655 0 0 1-.698-.698l.199-1.845a.642.642 0 0 1 .599-.549l1.797-.15a.637.637 0 0 1 .666.42c.032.09.043.184.032.279l-.199 1.895a.787.787 0 0 1-.599.498ZM235.689 98.044l-1.697.1a.654.654 0 0 1-.699-.699l.2-1.845a.641.641 0 0 1 .599-.548l1.697-.15a.634.634 0 0 1 .698.698l-.199 1.846a.743.743 0 0 1-.599.598ZM229.651 104.527l-1.597.1a.626.626 0 0 1-.489-.197.622.622 0 0 1-.16-.501l.2-1.796a.635.635 0 0 1 .598-.548l1.597-.1a.585.585 0 0 1 .5.186.59.59 0 0 1 .149.512l-.2 1.795a.598.598 0 0 1-.598.549Z"
    fill="#B0D7C0" />
  <path
    d="m240.529 103.928-1.796.1a.619.619 0 0 1-.649-.698l.2-1.845a.64.64 0 0 1 .599-.549l1.796-.099a.586.586 0 0 1 .5.186.588.588 0 0 1 .149.512l-.2 1.895a.64.64 0 0 1-.599.498ZM235.04 104.228l-1.697.1a.622.622 0 0 1-.624-.43.608.608 0 0 1-.024-.268l.199-1.796a.642.642 0 0 1 .599-.548l1.697-.1a.6.6 0 0 1 .5.186.598.598 0 0 1 .148.512l-.199 1.846a.646.646 0 0 1-.599.498Z"
    fill="#FFEE93" />
  <path
    d="m258.843 108.317 78.148-8.079a2.313 2.313 0 0 1 2.405 1.496c.119.318.167.659.14.998l-6.687 76.001a3.493 3.493 0 0 1-3.643 3.192l-75.902-4.089a2.333 2.333 0 0 1-2.195-2.444l4.591-63.783a3.571 3.571 0 0 1 3.143-3.292Z"
    fill="#F8AB5D" />
  <path
    d="m255.999 107.469 79.045-8.178a2.31 2.31 0 0 1 2.545 2.543l-6.737 76.849a3.456 3.456 0 0 1-3.692 3.192l-76.8-4.139a2.302 2.302 0 0 1-.892-.227 2.299 2.299 0 0 1-1.192-1.353 2.323 2.323 0 0 1-.112-.914l4.641-64.531a3.658 3.658 0 0 1 3.194-3.242Z"
    fill="#818181" />
  <path d="m264.183 124.026-3.593.2-.449 6.682 3.543-.099.499-6.783Z" fill="#6DAFA7" />
  <path d="m260.141 130.908-.25 3.292 3.543-.1.25-3.291-3.543.099Z" fill="#B0D7C0" />
  <path d="m271.918 114.95-3.593.25-.599 8.627 3.543-.15.649-8.727Z" fill="#6DAFA7" />
  <path d="M267.726 123.826 266.978 134l3.543-.1.748-10.223-3.543.149Z" fill="#B0D7C0" />
  <path d="m275.211 118.092-.399 5.386 3.543-.199.4-5.436-3.544.249Z" fill="#6DAFA7" />
  <path d="m274.812 123.478-.748 10.373 3.543-.1.748-10.473-3.543.2Z" fill="#B0D7C0" />
  <path d="m285.441 122.879-3.543.199-.249 3.79 3.543-.199.249-3.79Z" fill="#6DAFA7" />
  <path d="m281.649 126.868-.499 6.783 3.543-.1.499-6.882-3.543.199Z" fill="#B0D7C0" />
  <path d="m292.977 116.845-.449 5.685-.25 3.74-3.543.2.249-3.791.45-5.585 3.543-.249Z" fill="#6DAFA7" />
  <path d="m288.735 126.47-.549 6.982 3.543-.05.549-7.131-3.543.199Z" fill="#B0D7C0" />
  <path d="m321.471 112.756-6.338 10.024-5.539-7.531a13.654 13.654 0 0 1 7.585-3.141 9.855 9.855 0 0 1 4.292.648Z"
    fill="#007DBA" />
  <path d="m326.411 121.982-11.278.798 6.338-10.024c3.493 1.396 5.539 4.887 4.94 9.226Z" fill="#F4C2C9" />
  <path d="M326.411 121.981c0 .15-.05.3-.05.449-1.048 5.935-6.587 10.872-12.425 11.321l1.197-10.972 11.278-.798Z"
    fill="#B0D7C0" />
  <path
    d="m315.133 122.779-1.197 10.972a6.148 6.148 0 0 1-.949.05c-5.938 0-9.581-4.838-8.333-10.673a14.136 14.136 0 0 1 4.94-7.829l5.539 7.48Z"
    fill="#fff" />
  <path
    d="m324.814 142.278-2.595 25.284-65.222-1.197.1-1.944 14.122-9.725a1.797 1.797 0 0 1 2.146.05l5.29 3.89a1.858 1.858 0 0 0 1.38.341 1.85 1.85 0 0 0 1.215-.74l5.239-6.982a1.855 1.855 0 0 1 1.51-.741 1.855 1.855 0 0 1 1.484.791l4.641 6.433a1.868 1.868 0 0 0 1.238.762c.247.037.499.024.741-.038a1.87 1.87 0 0 0 .666-.325 1.879 1.879 0 0 1 2.196-.05l3.293 2.344a1.89 1.89 0 0 0 1.428.309 1.865 1.865 0 0 0 1.217-.808l7.386-11.37a1.865 1.865 0 0 1 1.962-.798c.245.053.477.155.683.299l2.145 1.546a1.845 1.845 0 0 0 2.063.095c.209-.128.39-.296.532-.494l5.14-6.932Z"
    fill="#6DAFA7" />
  <path
    d="M277.357 150.307h-2.844a.462.462 0 0 0-.349.15l-.649.648a.497.497 0 0 1-.699 0l-.499-.648a.454.454 0 0 0-.349-.15h-2.745a.385.385 0 0 1-.399-.448l.399-5.386a.539.539 0 0 1 .499-.499l8.134-.299a.45.45 0 0 1 .449.449l-.449 5.635a.496.496 0 0 1-.499.548Z"
    fill="#fff" />
  <path
    d="m304.005 153-2.844-.05a.449.449 0 0 0-.35.15l-.648.648a.456.456 0 0 1-.362.143.453.453 0 0 1-.337-.193l-.499-.648a.454.454 0 0 0-.349-.15l-2.695-.05c-.25 0-.399-.199-.399-.498l.399-5.436a.536.536 0 0 1 .449-.499l8.134-.199a.456.456 0 0 1 .449.498l-.449 5.785a.46.46 0 0 1-.303.47.466.466 0 0 1-.196.029Z"
    fill="#F4C2C9" />
  <path
    d="M167.323 296.875c-.2.648-.649 3.242-.998 5.635a20.84 20.84 0 0 1-11.029-1.346c.25-2.494.499-5.087.499-5.087 0-1.396 11.927-.399 11.528.798Z"
    fill="#22272E" />
  <path
    d="M166.325 302.461c-.3 2.094-.599 3.939-.599 3.939s-1.348 3.142-4.741 3.142-6.138-2.842-6.088-4.039c.05-.549.2-2.444.399-4.389a20.711 20.711 0 0 0 11.029 1.347Z"
    fill="#F4C2C9" />
  <path
    d="M154.947 304.555a21.088 21.088 0 0 0 1.547 1.546c.549.498 2.245-1.048 4.641-.748 2.395.299 3.143 1.246 3.143 1.246a4.252 4.252 0 0 0 1.547-.648c.046 1.247.299 2.477.749 3.641.749 1.944 4.541 7.63 4.541 8.727 0 1.097-.249 1.945-1.048 2.294-.798.349-6.088.399-10.529.498-4.442.1-7.885.35-8.384-1.396-.499-1.745 1.547-7.181 2.395-10.522.849-3.342.699-4.588 1.398-4.638Z"
    fill="#22272E" />
  <path d="M155.695 313.781s5.34-2.843 10.43 0M156.693 310.988a15.538 15.538 0 0 1 8.484 0" stroke="#fff"
    stroke-width="1.8" stroke-linecap="round" stroke-linejoin="round" />
  <path
    d="M219.121 300.316c-5.689 1.945-11.577.748-11.527.798-.2-2.793-.449-5.735-.449-5.735.748-1.746 11.477-2.544 11.577-1.796 0 .399.2 3.691.399 6.733Z"
    fill="#22272E" />
  <path
    d="M219.421 305.602s-.749 2.344-3.993 3.54c-3.243 1.197-7.385-2.044-7.435-2.992-.05-.399-.2-2.693-.399-5.037 0-.05 5.838 1.147 11.527-.798.15 2.743.3 5.287.3 5.287Z"
    fill="#F4C2C9" />
  <path
    d="M207.893 305.452c-.349 0-.599.499-.798 3.641-.2 3.142-1.198 10.074 0 11.121 1.197 1.047 25.101.748 27.845.548 2.745-.199 4.242-1.994 3.394-3.191-.849-1.197-6.737-3.391-11.927-6.882-5.19-3.491-6.437-4.239-7.036-5.087 0 0 .299-2.843-1.248-2.394-1.547.449-2.595 4.139-4.591 4.638-1.996.499-2.245-2.593-5.639-2.394Z"
    fill="#22272E" />
  <path d="M227.555 310.789s-1.348-.399-4.392 2.843M224.261 308.644s-2.395-.1-5.14 3.441" stroke="#fff"
    stroke-width="1.8" stroke-linecap="round" stroke-linejoin="round" />
  <path
    d="m157.192 301.812.3-1.995M160.636 302.56l.299-1.995M164.428 302.709l.35-1.795M209.839 301.363l-.149-2.094M213.981 301.314l-.149-2.294M217.724 300.715l-.15-2.145"
    stroke="#63737A" stroke-width="1.8" stroke-linecap="round" stroke-linejoin="round" />
  <path
    d="M153.849 185.216a61.871 61.871 0 0 0-1.397 11.969c-.15 6.832 5.19 28.226 7.136 35.458 1.946 7.231 1.547 8.378 1.247 9.774-.299 1.396-3.293 12.467-4.291 23.937-.998 11.471-4.591 20.696-4.192 24.237.549 4.788 2.595 6.184 3.443 6.733.848.548 7.835 2.792 12.576 1.695 0 0 5.04-3.191 5.988-7.68.948-4.488.399-9.924 3.643-24.586 3.243-14.661 4.74-20.696 5.19-26.53.249-3.491.299-13.465.349-21.095.05-5.187.05-9.326.1-9.725.149-.997 2.595.15 3.892-3.042.549-1.446.848-4.189.898-7.131.1-3.74-.149-7.83-.648-10.074-.799-4.139-33.136-8.328-33.934-3.94Z"
    fill="#22272E" />
  <path
    d="M222.315 291.489c-.848 2.095-2.395 4.488-3.793 5.037-1.397.549-7.685 1.396-10.878 1.097 0 0-5.34-1.546-5.889-5.585-.549-4.04.399-8.528-1.397-17.604-1.797-9.077-3.344-25.135-3.793-29.872-.449-4.738-10.23-18.851-14.821-27.379-4.591-8.528-9.531-24.137-5.439-27.777 4.092-3.641 18.713-5.286 23.055-2.344 0 0 5.04 12.268 10.08 26.93 4.641 13.464 5.589 18.003 6.238 21.892.042.354.109.704.2 1.048.199 1.197.449 4.288.798 8.278.798 10.124 1.747 25.833 2.146 29.423.549 4.987 4.341 14.762 3.493 16.856Z"
    fill="#22272E" />
  <path
    d="M180.846 210.151a63.05 63.05 0 0 1 9.981-2.693M180.578 246.202c.739-3.616-1.553-7.138-5.118-7.865-3.565-.727-7.054 1.615-7.793 5.232-.738 3.617 1.553 7.139 5.118 7.866 3.566.727 7.055-1.616 7.793-5.233ZM216.676 245.16a6.49 6.49 0 0 1-5.09 2.443 6.637 6.637 0 0 1-6.662-6.608 6.629 6.629 0 0 1 1.926-4.697 6.644 6.644 0 0 1 4.686-1.96 6.492 6.492 0 0 1 4.142 1.496M154.997 208.805a17.32 17.32 0 0 0 5.589-12.767 41.515 41.515 0 0 1-5.589-.698"
    stroke="#63737A" stroke-width="1.8" stroke-linecap="round" stroke-linejoin="round" />
  <path d="M183.541 219.128c.05-5.187.05-9.326.1-9.725.149-.997 2.595.15 3.892-3.042.549-1.446.848-4.189.898-7.132"
    stroke="#63737A" stroke-width="1.8" stroke-linecap="round" stroke-linejoin="round" />
  <path
    d="M198.262 128.115s4.092.2 10.679 13.365a5771.466 5771.466 0 0 1 8.933 17.904s4.341-1.048 11.427-2.195c7.086-1.147 17.067-2.593 17.067-2.593s2.695.05 3.842 3.89a6.056 6.056 0 0 1-1.197 5.685 2.25 2.25 0 0 1-.948.698c-3.044 1.297-20.81 8.777-26.848 10.074-6.637 1.396-9.881 1.197-15.769-6.882-5.889-8.079-10.529-14.363-12.675-17.604-2.146-3.391-3.693-21.843 5.489-22.342Z"
    fill="#6DAFA7" />
  <path d="M209.49 172.649s-.349-2.643 4.791-2.643c5.14 0 7.784 3.84 6.537 4.937M217.874 159.334s-2.146.997-2.595 2.493"
    stroke="#22272E" stroke-width="1.8" stroke-linecap="round" stroke-linejoin="round" />
  <path
    d="M246.617 154.996s2.196-.798 2.745-1.097c.549-.3 1.747-2.394 2.745-3.691.998-1.296 3.842-2.044 4.641-1.895a1.635 1.635 0 0 1 1.097.648s2.495-.897 4.192-1.595c1.697-.699 4.841-2.245 5.29-.998.249.748-1.697 1.845-3.044 2.593-1.647.948-2.745 1.646-2.745 1.646a2.09 2.09 0 0 1 .998 1.446c.2 1.048.749 2.195-.249 3.79-.3.449.848 1.696-.05 2.843-1.547 1.845-5.29 2.793-7.286 3.391-1.996.599-6.687.898-6.687.898s-1.497-.349-2.146-3.591c-.648-3.241.499-4.388.499-4.388Z"
    fill="#F4C2C9" />
  <path d="M257.845 148.961s.35.898.749 2.244c.399 1.347.699 2.394-.349 2.444-1.048.05-1.996-1.546-2.396-2.344"
    stroke="#E26E85" stroke-width="1.8" stroke-linecap="round" stroke-linejoin="round" />
  <path
    d="M256.548 152.452s1.148 2.294-1.497 4.289M261.588 150.606l-2.794 1.297M257.396 153.349s-.499.798 0 1.247c.499.449 3.244-.549 5.24-1.696"
    stroke="#E26E85" stroke-width="1.8" stroke-linecap="round" stroke-linejoin="round" />
  <path d="M257.845 154.696a1.033 1.033 0 0 0-.449 1.347c.4.897 2.545.548 4.891-.2" stroke="#E26E85" stroke-width="1.8"
    stroke-linecap="round" stroke-linejoin="round" />
  <path d="M258.295 156.591s-1.248.149-.599 1.396c.399.748 2.794.499 3.293.698" stroke="#E26E85" stroke-width="1.8"
    stroke-linecap="round" stroke-linejoin="round" />
  <path d="M243.723 155.444c-.399.699-.898 2.045-.549 4.439a6.934 6.934 0 0 0 3.094 5.136" stroke="#22272E"
    stroke-width="1.8" stroke-linecap="round" stroke-linejoin="round" />
  <path
    d="M182.094 109.863s-1.597 8.029-2.496 10.224c-.898 2.194 3.993 5.635 8.883 5.834 4.891.2 4.392-2.643 4.392-2.643l1.447-7.979c0 .05-10.48-7.281-12.226-5.436Z"
    fill="#F4C2C9" />
  <path d="M184.289 112.257c-.698 6.084 3.693 9.026 8.584 11.32v-.299l.798-4.239c-3.643-1.197-6.837-3.79-9.382-6.782Z"
    fill="#E26E85" />
  <path
    d="M161.135 125.971c1.097-3.241 5.289-5.186 8.683-4.887 3.493.299 10.18.399 16.617 2.394 10.979 3.391 13.623 5.386 14.272 5.984 3.643 3.491 3.294 8.677 1.198 22.99-1.347 9.425-2.495 11.819-2.196 16.457.3 4.638 1.148 12.866 1.697 14.562.549 1.696-.848 4.638-2.046 5.685-1.198 1.047-10.879 3.242-19.861 3.042-8.983-.199-23.105-2.643-25.351-4.139-2.245-1.496-3.842-4.089-3.343-6.333a99.89 99.89 0 0 1 2.395-10.174c1.397-4.737 1.497-10.921 3.693-20.845 1.697-7.331 1.946-17.954 4.242-24.736Z"
    fill="#EE7B54" />
  <path
    d="M201.549 115.274c1.208-.604 1.947-1.573 1.651-2.164-.296-.591-1.515-.581-2.722.023-1.208.604-1.947 1.573-1.651 2.164.296.591 1.515.581 2.722-.023ZM209.781 120.871c1.208-.604 1.947-1.573 1.651-2.164-.296-.591-1.515-.581-2.722.023-1.208.604-1.947 1.572-1.651 2.164.296.591 1.515.58 2.722-.023ZM191.47 120.323c1.208-.604 1.947-1.573 1.651-2.164-.296-.591-1.515-.581-2.723.023-1.207.604-1.947 1.573-1.651 2.164.296.591 1.515.581 2.723-.023ZM199.748 125.896c1.208-.604 1.947-1.573 1.651-2.164-.296-.591-1.515-.581-2.722.023-1.208.604-1.947 1.573-1.651 2.164.296.591 1.515.581 2.722-.023ZM209.132 130.437c1.208-.604 1.947-1.573 1.651-2.164-.296-.591-1.515-.581-2.722.023-1.208.604-1.947 1.573-1.651 2.164.296.591 1.515.581 2.722-.023ZM217.365 136.034c1.207-.604 1.946-1.573 1.65-2.164-.296-.591-1.515-.581-2.722.023-1.208.604-1.947 1.573-1.651 2.164.296.591 1.515.581 2.723-.023ZM199.058 135.484c1.207-.604 1.946-1.573 1.651-2.164-.296-.591-1.515-.581-2.723.023s-1.947 1.573-1.651 2.164c.296.591 1.515.581 2.723-.023ZM207.341 141.057c1.208-.604 1.947-1.572 1.651-2.164-.296-.591-1.515-.58-2.723.023-1.208.604-1.947 1.573-1.651 2.164.296.591 1.515.581 2.723-.023ZM181.446 125.347c1.208-.604 1.947-1.572 1.651-2.164-.296-.591-1.515-.58-2.722.023-1.208.604-1.947 1.573-1.651 2.164.296.591 1.515.581 2.722-.023ZM189.679 130.943c1.207-.604 1.946-1.573 1.65-2.164-.295-.591-1.514-.581-2.722.023s-1.947 1.573-1.651 2.164c.296.591 1.515.581 2.723-.023ZM171.349 130.35c1.208-.604 1.947-1.573 1.651-2.164-.296-.591-1.515-.581-2.723.023-1.207.604-1.946 1.573-1.65 2.164.296.591 1.515.581 2.722-.023ZM179.628 135.923c1.207-.604 1.946-1.572 1.65-2.163-.295-.592-1.514-.581-2.722.023-1.208.603-1.947 1.572-1.651 2.163.296.592 1.515.581 2.723-.023ZM189.007 140.464c1.207-.603 1.946-1.572 1.65-2.163-.295-.592-1.514-.581-2.722.023-1.208.603-1.947 1.572-1.651 2.163.296.592 1.515.581 2.723-.023ZM197.264 146.111c1.208-.604 1.947-1.573 1.651-2.164-.296-.591-1.515-.581-2.723.023s-1.947 1.573-1.651 2.164c.296.591 1.515.581 2.723-.023ZM178.935 145.518c1.207-.604 1.946-1.573 1.65-2.164-.295-.591-1.514-.581-2.722.023s-1.947 1.573-1.651 2.164c.296.591 1.515.581 2.723-.023ZM187.213 151.09c1.208-.604 1.947-1.572 1.651-2.163-.296-.592-1.515-.581-2.723.023-1.208.603-1.947 1.572-1.651 2.163.296.591 1.515.581 2.723-.023ZM216.922 145.996c1.208-.604 1.947-1.573 1.651-2.164-.296-.591-1.515-.581-2.722.023-1.208.604-1.947 1.572-1.651 2.164.296.591 1.515.58 2.722-.023ZM225.159 151.589c1.208-.603 1.947-1.572 1.651-2.163-.296-.592-1.515-.581-2.723.023-1.207.603-1.947 1.572-1.651 2.163.296.592 1.515.581 2.723-.023ZM206.825 150.999c1.208-.604 1.947-1.573 1.651-2.164-.296-.591-1.515-.581-2.723.023-1.207.604-1.946 1.572-1.65 2.164.295.591 1.514.58 2.722-.023ZM215.108 156.575c1.208-.604 1.947-1.573 1.651-2.164-.296-.591-1.515-.581-2.723.023-1.207.604-1.947 1.573-1.651 2.164.296.591 1.515.581 2.723-.023ZM224.51 161.157c1.208-.604 1.947-1.573 1.651-2.164-.296-.591-1.515-.581-2.723.023-1.207.604-1.947 1.573-1.651 2.164.296.591 1.515.581 2.723-.023ZM232.742 166.753c1.208-.603 1.947-1.572 1.651-2.163-.296-.591-1.515-.581-2.723.023-1.207.604-1.946 1.572-1.65 2.163.295.592 1.514.581 2.722-.023ZM214.413 166.16c1.207-.604 1.947-1.573 1.651-2.164-.296-.591-1.515-.581-2.723.023s-1.947 1.573-1.651 2.164c.296.591 1.515.581 2.723-.023ZM222.691 171.733c1.208-.604 1.947-1.573 1.651-2.164-.296-.591-1.515-.581-2.723.023-1.207.604-1.946 1.573-1.65 2.164.295.591 1.514.581 2.722-.023ZM196.797 156.023c1.207-.604 1.947-1.573 1.651-2.164-.296-.591-1.515-.581-2.723.023s-1.947 1.573-1.651 2.164c.296.591 1.515.581 2.723-.023ZM205.034 161.619c1.207-.604 1.947-1.573 1.651-2.164-.296-.591-1.515-.581-2.723.023s-1.947 1.573-1.651 2.164c.296.591 1.515.581 2.723-.023ZM186.722 161.072c1.208-.604 1.947-1.573 1.651-2.164-.296-.591-1.515-.581-2.722.023-1.208.604-1.947 1.573-1.651 2.164.296.591 1.515.581 2.722-.023ZM195.005 166.647c1.208-.604 1.947-1.573 1.651-2.164-.296-.591-1.515-.581-2.723.023-1.207.604-1.946 1.573-1.651 2.164.296.591 1.515.581 2.723-.023ZM204.385 171.186c1.207-.604 1.947-1.573 1.651-2.164-.296-.591-1.515-.581-2.723.023s-1.947 1.573-1.651 2.164c.296.591 1.515.581 2.723-.023ZM212.624 176.784c1.207-.604 1.946-1.573 1.65-2.164-.296-.591-1.515-.581-2.722.023-1.208.604-1.947 1.573-1.651 2.164.296.591 1.515.581 2.723-.023ZM202.588 181.805c1.208-.604 1.947-1.572 1.651-2.164-.296-.591-1.515-.58-2.723.023-1.207.604-1.946 1.573-1.65 2.164.296.591 1.515.581 2.722-.023ZM161.219 135.425c1.208-.604 1.947-1.572 1.651-2.163-.296-.592-1.515-.581-2.723.023-1.207.603-1.946 1.572-1.65 2.163.296.591 1.515.581 2.722-.023ZM169.458 141.024c1.208-.604 1.947-1.573 1.651-2.164-.296-.591-1.515-.581-2.723.023-1.207.604-1.946 1.573-1.651 2.164.296.591 1.515.581 2.723-.023ZM151.191 140.454c1.207-.604 1.947-1.573 1.651-2.164-.296-.591-1.515-.581-2.723.023s-1.947 1.572-1.651 2.164c.296.591 1.515.58 2.723-.023ZM159.43 146.054c1.208-.604 1.947-1.572 1.651-2.164-.296-.591-1.515-.58-2.723.023-1.207.604-1.947 1.573-1.651 2.164.296.591 1.515.581 2.723-.023ZM168.809 150.59c1.208-.604 1.947-1.572 1.651-2.163-.296-.592-1.515-.581-2.723.023-1.207.603-1.947 1.572-1.651 2.163.296.591 1.515.581 2.723-.023ZM177.087 156.168c1.208-.603 1.947-1.572 1.651-2.163-.296-.591-1.515-.581-2.722.023-1.208.604-1.947 1.572-1.651 2.163.296.592 1.515.581 2.722-.023ZM158.781 155.617c1.208-.604 1.947-1.573 1.651-2.164-.296-.591-1.515-.581-2.723.023-1.207.604-1.947 1.573-1.651 2.164.296.591 1.515.581 2.723-.023ZM167.013 161.213c1.208-.603 1.947-1.572 1.651-2.163-.296-.592-1.515-.581-2.723.023-1.207.603-1.946 1.572-1.65 2.163.295.592 1.514.581 2.722-.023ZM141.119 145.502c1.207-.603 1.947-1.572 1.651-2.163-.296-.591-1.515-.581-2.723.023s-1.947 1.572-1.651 2.163c.296.592 1.515.581 2.723-.023ZM149.399 151.074c1.208-.604 1.947-1.573 1.651-2.164-.296-.591-1.515-.581-2.723.023-1.207.604-1.946 1.573-1.65 2.164.295.591 1.514.581 2.722-.023ZM131.068 150.488c1.207-.604 1.946-1.573 1.651-2.164-.296-.591-1.515-.581-2.723.023s-1.947 1.573-1.651 2.164c.296.591 1.515.581 2.723-.023ZM139.327 156.127c1.208-.603 1.947-1.572 1.651-2.163-.296-.591-1.515-.581-2.723.023-1.207.604-1.946 1.572-1.651 2.163.296.592 1.515.581 2.723-.023ZM148.706 160.664c1.208-.604 1.947-1.573 1.651-2.164-.296-.591-1.515-.581-2.722.023-1.208.604-1.947 1.572-1.651 2.164.296.591 1.515.58 2.722-.023ZM156.985 166.242c1.207-.604 1.946-1.573 1.651-2.164-.296-.591-1.515-.581-2.723.023s-1.947 1.573-1.651 2.164c.296.591 1.515.581 2.723-.023ZM138.655 165.643c1.208-.604 1.947-1.573 1.651-2.164-.296-.591-1.515-.581-2.723.023-1.207.604-1.946 1.573-1.651 2.164.296.591 1.515.581 2.723-.023ZM146.887 171.245c1.208-.604 1.947-1.573 1.651-2.164-.296-.591-1.515-.581-2.722.023-1.208.604-1.947 1.572-1.651 2.164.296.591 1.515.58 2.722-.023ZM166.573 171.173c1.208-.604 1.947-1.572 1.651-2.163-.296-.592-1.515-.581-2.723.023-1.207.603-1.946 1.572-1.65 2.163.296.592 1.515.581 2.722-.023ZM192.465 186.888c1.208-.604 1.947-1.572 1.651-2.164-.296-.591-1.515-.58-2.723.023-1.208.604-1.947 1.573-1.651 2.164.296.591 1.515.581 2.723-.023ZM174.131 186.297c1.208-.603 1.947-1.572 1.651-2.163-.296-.592-1.515-.581-2.723.023-1.207.603-1.946 1.572-1.65 2.163.296.592 1.515.581 2.722-.023ZM182.391 191.937c1.207-.604 1.947-1.573 1.651-2.164-.296-.591-1.515-.581-2.723.023s-1.947 1.573-1.651 2.164c.296.591 1.515.581 2.723-.023ZM156.478 176.181c1.208-.604 1.947-1.572 1.651-2.164-.296-.591-1.515-.58-2.722.023-1.208.604-1.947 1.573-1.651 2.164.296.591 1.515.581 2.722-.023ZM164.754 181.75c1.208-.604 1.947-1.573 1.651-2.164-.296-.591-1.515-.581-2.722.023-1.208.604-1.947 1.572-1.651 2.164.296.591 1.515.58 2.722-.023ZM146.445 181.207c1.208-.604 1.947-1.573 1.651-2.164-.296-.591-1.515-.581-2.723.023-1.207.604-1.946 1.572-1.65 2.164.295.591 1.514.58 2.722-.023ZM154.677 186.803c1.208-.604 1.947-1.572 1.651-2.164-.296-.591-1.515-.58-2.722.023-1.208.604-1.947 1.573-1.651 2.164.296.591 1.515.581 2.722-.023ZM164.061 191.339c1.208-.603 1.947-1.572 1.651-2.163-.296-.592-1.515-.581-2.722.023-1.208.603-1.947 1.572-1.651 2.163.296.592 1.515.581 2.722-.023ZM172.34 196.917c1.207-.603 1.947-1.572 1.651-2.163-.296-.591-1.515-.581-2.723.023s-1.947 1.572-1.651 2.164c.296.591 1.515.58 2.723-.024ZM154.028 196.371c1.208-.604 1.947-1.573 1.651-2.164-.296-.591-1.515-.581-2.722.023-1.208.604-1.947 1.572-1.651 2.164.296.591 1.515.58 2.722-.023ZM162.27 201.964c1.208-.604 1.947-1.572 1.651-2.163-.296-.592-1.515-.581-2.723.023-1.208.603-1.947 1.572-1.651 2.163.296.592 1.515.581 2.723-.023Z"
    fill="#FFEE93" />
  <path
    d="M174.858 162.525a91.37 91.37 0 0 0 16.867 1.945 1.554 1.554 0 0 1 1.497 1.347 9.887 9.887 0 0 0 2.545 5.386 1.4 1.4 0 0 1 .399.997c.05 2.095.15 9.176-1.247 10.273-1.597 1.197-18.564 2.294-29.094-.648a1.594 1.594 0 0 1-1.197-1.496c.05-2.045.15-6.334.499-9.027a1.727 1.727 0 0 1 .948-1.246c1.647-.748 5.439-2.743 6.787-6.483a1.781 1.781 0 0 1 1.996-1.048v0Z"
    stroke="#FFEE93" stroke-width="1.8" stroke-linecap="round" stroke-linejoin="round" />
  <path
    d="M178.95 118.89a.78.78 0 0 1 .927-.43c.12.034.229.096.32.181.949.997 2.995 2.493 6.687 3.191 5.639 1.048 6.188.2 6.188.2s.898.299.998 1.047a13.41 13.41 0 0 1-.399 3.591c-.299.947-4.491 1.047-7.835.349a15.156 15.156 0 0 1-7.834-4.04 1.141 1.141 0 0 1-.25-1.296c.3-.748.799-1.845 1.198-2.793Z"
    fill="#6DAFA7" />
  <path
    d="M203.552 100.387a17.747 17.747 0 0 1-.998 6.284c-.998 2.593-2.645 9.824-5.889 12.168-3.244 2.344-10.33 1.895-13.424-4.139-3.094-6.034-2.096-12.368-.499-17.454 1.597-5.087 8.184-6.932 13.923-4.838 5.739 2.095 6.887 5.735 6.887 7.979Z"
    fill="#F4C2C9" />
  <path
    d="M182.593 103.879c.34.446.625.932.848 1.447.449 1.047 1.397.448 1.747-1.447.349-1.895 1.147-3.241 1.746-3.141a3.496 3.496 0 0 0 3.942-1.846c1.248-2.294 1.797-1.945 1.797-1.945s.998-2.393 3.593 1.048c2.595 3.441 4.242 6.134 7.336 5.585 3.094-.548 5.838-5.585 3.493-10.423-2.346-4.837-9.731-5.984-15.22-4.538-5.49 1.446-8.334.25-11.628 3.042-3.293 2.793-2.495 5.735-2.694 9.027-.2 3.291-1.897 5.036.349 7.979 2.245 2.942 1.647 5.685 2.894 7.331 0 0 1.348-4.339 1.198-7.481-.15-3.142.599-4.638.599-4.638Z"
    fill="#22272E" />
  <path
    d="M197.414 106.622a4.88 4.88 0 0 1-4.791 4.737 4.693 4.693 0 0 1-3.342-1.44 4.687 4.687 0 0 1-1.299-3.397 4.914 4.914 0 0 1 1.421-3.482 4.901 4.901 0 0 1 3.47-1.455 4.75 4.75 0 0 1 3.332 1.563 4.732 4.732 0 0 1 1.209 3.474v0ZM205.11 109.575c.694-2.38-.095-4.703-1.762-5.188-1.667-.485-3.581 1.051-4.274 3.431-.694 2.38.095 4.702 1.762 5.188 1.667.485 3.581-1.051 4.274-3.431Z"
    stroke="#22272E" stroke-width="1.8" stroke-linecap="round" stroke-linejoin="round" />
  <path d="M199.16 107.669s-.05-.997-1.796-.449M188.381 104.477l-5.788-1.047" stroke="#22272E" stroke-width="1.8"
    stroke-linecap="round" stroke-linejoin="round" />
  <path d="M183.092 104.776s-.449-2.643-2.595-2.693c-2.146-.05-3.443 6.533 1.896 7.431" fill="#F4C2C9" />
  <path
    d="M180.147 104.128a1.268 1.268 0 0 1 1.348.499c.142.259.211.552.199.848 0 .149-.049.249-.049.399 0 .149-.05.199-.05.299a1.86 1.86 0 0 0-.05.499.418.418 0 0 0 .1.349c.268.291.59.528.948.698a1.681 1.681 0 0 1-1.447-.15 1.181 1.181 0 0 1-.45-.748 2.086 2.086 0 0 1 .05-.798c.05-.099.05-.249.1-.349.05-.099.05-.149.05-.249a.55.55 0 0 0 0-.399 1.416 1.416 0 0 0-.749-.898ZM198.462 106.871c.034.563.151 1.118.349 1.646.086.231.204.449.349.648.21.247.363.536.449.848a2.342 2.342 0 0 1-.399 1.945 2.184 2.184 0 0 1-.698.648c-.264.18-.58.268-.899.249.442-.324.773-.777.948-1.296.195-.421.247-.893.15-1.347a2.854 2.854 0 0 0-.349-.648 3.01 3.01 0 0 1-.3-.947 3.466 3.466 0 0 1 .4-1.746Z"
    fill="#22272E" />
  <path d="M193.471 114.801a3.777 3.777 0 0 1-3.293-2.195" stroke="#22272E" stroke-width="1.8" stroke-linecap="round"
    stroke-linejoin="round" />
  <path
    d="M191.425 107.569a.735.735 0 0 1-.46-.335.746.746 0 0 1-.089-.563l.2-.748a.74.74 0 0 1 .608-.561.745.745 0 0 1 .839.91l-.199.748a.757.757 0 0 1-.336.461.739.739 0 0 1-.563.088ZM199.36 109.614a.757.757 0 0 1-.461-.335.743.743 0 0 1-.088-.563l.2-.748a.738.738 0 0 1 .608-.561.746.746 0 0 1 .839.91l-.2.748a.74.74 0 0 1-.608.561.746.746 0 0 1-.29-.012ZM193.422 104.128c-.549.099-.799-.649-1.597-.599-1.248.05-1.947.299-2.046-.249-.05-.399.898-1.147 2.096-1.197 1.746 0 2.545 1.895 1.547 2.045ZM199.36 105.624c.349.3.848-.249 1.347.1.749.449.998.848 1.248.499.249-.349 0-1.197-.699-1.646-1.148-.798-2.645.499-1.896 1.047Z"
    fill="#22272E" />
  <path
    d="M136.483 189.006a7.273 7.273 0 0 0-.649 2.245c0 .847.699 8.677.499 10.223-.199 1.546-.698 4.588-.998 5.037-.299.449-2.096-.948-2.146-5.635-.049-4.688-1.646-11.121-.299-11.87 1.347-.748 3.194-.598 3.593 0Z"
    fill="#F4C2C9" />
  <path
    d="m103.797 212.146 11.976-18.851a1.865 1.865 0 0 1 2.595-.549l28.195 17.904a1.842 1.842 0 0 1 .82 1.181 1.865 1.865 0 0 1-.271 1.412l-11.976 18.851a1.855 1.855 0 0 1-1.183.819 1.865 1.865 0 0 1-1.412-.271l-28.195-17.903a1.902 1.902 0 0 1-.549-2.593Z"
    fill="#22272E" />
  <path
    d="m136.882 226.559 5.988-9.376a.73.73 0 0 1 .586-.343.733.733 0 0 1 .612.293l.948 1.247a.745.745 0 0 1 .05.848l-5.389 8.478a.65.65 0 0 1-.749.299l-1.547-.299a.793.793 0 0 1-.315-.167.787.787 0 0 1-.277-.637.778.778 0 0 1 .093-.343Z"
    fill="#6DAFA7" />
  <path
    d="M135.136 188.508s-.3 8.678-.35 10.523c-.05 1.845.05 5.485-.399 7.231-.449 1.745-1.198 6.134-2.545 6.433-1.347.299.1-5.386.1-6.483-.11-1.26-.31-2.51-.599-3.74 0 0-.499 2.743-.848 3.939-.35 1.197-2.645 4.938-3.543 4.788-.899-.15.199-2.942.898-4.638.649-1.546.898-4.787.898-4.787-.389.99-.839 1.956-1.347 2.892-.599.997-2.645 4.089-3.493 3.94-.849-.15.548-3.292 1.397-4.738a6.04 6.04 0 0 0 .898-2.493s-1.347 1.346-2.196 1.994c-.848.649-3.842 2.095-4.092 1.347-.249-.748 1.098-1.546 2.346-2.693 1.247-1.147 2.595-3.441 2.894-3.84.3-.399-.549-3.89.799-6.234 1.347-2.344 2.145-3.291 2.495-4.887.349-1.596 6.537.299 6.687 1.446Z"
    fill="#F4C2C9" />
  <path
    d="M166.324 121.084s-5.688-.548-12.525 8.029c-6.837 8.578-13.573 15.759-15.47 19.15-1.896 3.391-6.088 16.108-8.184 26.132-2.096 10.024-2.295 11.819-2.245 12.916.05.998 5.09 2.394 8.383 2.344a1.42 1.42 0 0 0 1.348-.898c1.297-3.042 5.838-13.414 7.635-17.205 2.096-4.438 4.541-11.021 4.84-11.47.3-.448 13.923-14.312 16.468-17.953 2.545-3.64 4.99-9.525 4.441-14.711-.599-5.636-3.493-6.384-4.691-6.334Z"
    fill="#6DAFA7" />
  <path
    d="M139.028 147.116s1.547-2.145 3.493-.2c2.046 2.045 1.148 6.483-1.697 9.276-2.345 2.294-5.688 1.346-5.389-.798M128.598 184.917c1.348.648 5.39 2.444 9.332 1.945"
    stroke="#22272E" stroke-width="1.8" stroke-linecap="round" stroke-linejoin="round" />
  <path
    d="m259.243 199.08 8.383-27.428a1.826 1.826 0 0 1 1.747-1.247l49.603 1.397a1.258 1.258 0 0 1 1.223 1.025c.035.19.026.385-.026.571l-9.731 33.462a1.753 1.753 0 0 1-1.946 1.247l-48.156-7.431a1.226 1.226 0 0 1-.942-.528 1.218 1.218 0 0 1-.155-1.068Z"
    fill="#22272E" />
  <path d="m258.794 200.477-28.844 2.693 49.453 12.168c1.196.3 2.447.3 3.643 0l26.848-6.932-51.1-7.929Z"
    fill="#63737A" />
  <path
    d="M279.453 215.338 230 203.17a2.076 2.076 0 0 0 1.547 1.995l46.609 12.367c1.967.516 4.039.482 5.988-.099l24.452-7.182a1.924 1.924 0 0 0 1.397-1.895l-26.847 6.932a7.148 7.148 0 0 1-3.693.05Z"
    fill="#22272E" />
  <path
    d="m291.829 176.489-3.493 11.869a.746.746 0 0 1-.699.499l-19.612-1.696a.67.67 0 0 1-.598-.847l3.293-10.872a.691.691 0 0 1 .649-.499l19.811.699a.69.69 0 0 1 .649.847Z"
    fill="#fff" />
  <path d="m288.086 178.634-2.196 7.131-15.27-1.097.549-1.596 5.639-2.493 3.194 2.493 8.084-4.438Z" fill="#F4C2C9" />
  <path
    d="m276.659 193.196-1.448 4.488a.673.673 0 0 1-.748.449l-9.432-1.247a.644.644 0 0 1-.549-.848l1.248-4.189a.749.749 0 0 1 .699-.498l9.631.997a.628.628 0 0 1 .53.261.626.626 0 0 1 .069.587Z"
    fill="#FFEE93" />
  <path
    d="m291.43 194.692-1.597 4.937a.675.675 0 0 1-.749.449l-8.982-1.197a.677.677 0 0 1-.586-.601.668.668 0 0 1 .037-.297l1.497-4.638a.65.65 0 0 1 .699-.448l9.082.897a.682.682 0 0 1 .524.299.672.672 0 0 1 .075.599Z"
    fill="#6DAFA7" />
  <path
    d="m308.396 196.387-1.696 5.486a.671.671 0 0 1-.749.449l-10.829-1.446a.678.678 0 0 1-.586-.601.683.683 0 0 1 .037-.297l1.647-5.137a.654.654 0 0 1 .699-.448l10.829 1.097a.69.69 0 0 1 .648.897Z"
    fill="#F4C2C9" />
  <path
    d="M302.558 178.883a3.417 3.417 0 0 1-3.393 2.543c-1.448-.1-2.196-1.346-1.797-2.743a3.42 3.42 0 0 1 3.144-2.343 2.033 2.033 0 0 1 2.068 1.604c.066.31.059.632-.022.939Z"
    fill="#FFEE93" />
  <path d="m306.101 177.237 7.286.25M294.723 186.713l15.62 1.097M305.253 180.18l7.285.299" stroke="#63737A"
    stroke-width="1.8" stroke-linecap="round" stroke-linejoin="round" />
  <path
    d="m345.224 105.674-37.925 2.943a1.613 1.613 0 0 1-.667-.099 1.611 1.611 0 0 1-.566-.365 1.59 1.59 0 0 1-.464-1.232l1.597-21.893a2.763 2.763 0 0 1 2.395-2.543l38.525-5.236a1.6 1.6 0 0 1 1.796 1.695l-2.146 24.237a2.818 2.818 0 0 1-2.545 2.493Z"
    fill="#6DAFA7" />
  <path
    d="m343.977 104.877-37.926 2.942a1.59 1.59 0 0 1-1.232-.464 1.598 1.598 0 0 1-.465-1.232l1.597-21.892a2.762 2.762 0 0 1 2.396-2.543l38.524-5.237a1.605 1.605 0 0 1 1.69 1.004c.086.22.122.456.107.691l-2.146 24.237a2.727 2.727 0 0 1-2.545 2.494Z"
    fill="#B0D7C0" />
  <path
    d="M318.726 90.214a3.342 3.342 0 0 1-2.844 2.992 2.138 2.138 0 0 1-2.3-1.43 2.131 2.131 0 0 1-.095-.963 3.293 3.293 0 0 1 2.794-2.992c1.497-.2 2.545.897 2.445 2.393Z"
    fill="#22272E" />
  <path
    d="m317.978 99.74-5.19.498a1.723 1.723 0 0 1-1.824-1.173 1.71 1.71 0 0 1-.072-.772 5.984 5.984 0 0 1 5.04-5.336c2.595-.299 4.591 1.696 4.341 4.439a2.65 2.65 0 0 1-2.295 2.344Z"
    fill="#22272E" />
  <path d="m324.864 87.521 16.169-1.895M324.465 91.96l16.168-1.745M324.116 96.399l9.731-.948" stroke="#63737A"
    stroke-width="1.8" stroke-linecap="round" stroke-linejoin="round" />
  <path
    d="M302.209 66.775c-1.947-1.945-4.691-3.092-8.085-3.49a12.086 12.086 0 0 0-6.637.897c-2.395 1.047-4.191 2.893-5.539 5.586l-2.245.947L281 72.062l5.839 1.047a8.204 8.204 0 0 1 2.046-3.341c.998-.998 2.345-1.397 4.042-1.147 1.696.249 2.844.897 3.293 1.945a4.801 4.801 0 0 1 .15 3.34 5.618 5.618 0 0 1-1.697 2.644 6.62 6.62 0 0 1-1.696 1.097l-1.996.997c-1.947.948-3.244 1.846-3.893 2.743a14.62 14.62 0 0 0-1.547 3.192l-1.996.648 1.298 1.347 5.988 1.645c.231-.962.6-1.886 1.098-2.742a5.485 5.485 0 0 1 2.495-2.095l2.046-.948c1.6-.67 3.11-1.542 4.491-2.593a9.276 9.276 0 0 0 3.044-5.037c.848-3.291.25-5.984-1.796-8.029ZM286.938 90.165l-.199-.05a3.346 3.346 0 0 0-4.092 2.493 3.628 3.628 0 0 0 2.146 4.489l.199.1c1.797.598 3.693-.5 4.242-2.494.549-1.995-.499-4.04-2.296-4.538Z"
    fill="#F8AB5D" />
  <path
    d="M286.24 62.836a13.072 13.072 0 0 1 6.637-.898c3.393.4 6.088 1.546 8.084 3.491 1.996 1.945 2.645 4.738 1.747 8.129a9.479 9.479 0 0 1-3.044 5.037c-.849.748-2.346 1.596-4.492 2.593l-2.046.948a5.494 5.494 0 0 0-2.495 2.094c-.466.87-.835 1.79-1.098 2.743l-5.988-1.646c.848-2.593 1.547-4.289 2.246-5.186.698-.898 1.946-1.796 3.892-2.743l1.996-.998a7.1 7.1 0 0 0 1.697-1.097 5.06 5.06 0 0 0 1.697-2.643 5.424 5.424 0 0 0-.15-3.341c-.399-1.047-1.547-1.695-3.294-1.945-1.746-.25-3.044.15-4.042 1.147a7.614 7.614 0 0 0-2.046 3.341l-5.838-1.047c1.397-4.04 3.493-6.633 6.537-7.979Zm-.649 26.53.2.05a3.62 3.62 0 0 1 2.295 4.489c-.549 1.995-2.495 3.092-4.241 2.493l-.2-.1a3.634 3.634 0 0 1-2.146-4.488 3.372 3.372 0 0 1 4.092-2.443Z"
    fill="#FFEE93" />
  <path
    d="M150.456 93.605h19.162l1.946 1.247a.941.941 0 0 0 1.32-.315.939.939 0 0 0 .127-.483V80.54a2.492 2.492 0 0 0-2.495-2.493h-20.06a2.497 2.497 0 0 0-2.496 2.493v10.573a2.492 2.492 0 0 0 2.496 2.493Z"
    fill="#F4C2C9" />
  <path d="M166.824 82.484h-12.775M166.824 85.976h-12.775M166.824 89.467h-7.336" stroke="#22272E" stroke-width="1.8"
    stroke-linecap="round" stroke-linejoin="round" />
</svg>